<svg xmlns="http://www.w3.org/2000/svg" version="1.1" xmlns:xlink="http://www.w3.org/1999/xlink" xmlns:svgjs="http://svgjs.com/svgjs" width="1000" height="1000"><rect width="1000" height="1000" rx="250" ry="250" fill="#b92f2c"></rect><g transform="matrix(19.51219512195122,0,0,19.51219512195122,109.75323310130983,100.00638213971769)"><svg xmlns="http://www.w3.org/2000/svg" version="1.1" xmlns:xlink="http://www.w3.org/1999/xlink" xmlns:svgjs="http://svgjs.com/svgjs" width="40" height="41"><svg width="40" height="41" viewBox="0 0 40 41" fill="none" xmlns="http://www.w3.org/2000/svg">
<path d="M33.034 3.83301H6.96732C4.96068 3.83301 3.33398 5.45971 3.33398 7.46634V33.533C3.33398 35.5396 4.96068 37.1663 6.96732 37.1663H33.034C35.0406 37.1663 36.6673 35.5396 36.6673 33.533V7.46634C36.6673 5.45971 35.0406 3.83301 33.034 3.83301Z" stroke="white" stroke-width="2" stroke-linecap="round" stroke-linejoin="round"></path>
<path d="M11.666 3.83301V37.1663" stroke="white" stroke-width="2" stroke-linecap="round" stroke-linejoin="round"></path>
<path d="M28.334 3.83301V37.1663" stroke="white" stroke-width="2" stroke-linecap="round" stroke-linejoin="round"></path>
<path d="M3.33301 20.5H36.6663" stroke="white" stroke-width="2" stroke-linecap="round" stroke-linejoin="round"></path>
<path d="M3.33398 12.167H11.6673" stroke="white" stroke-width="2" stroke-linecap="round" stroke-linejoin="round"></path>
<path d="M3.33398 28.833H11.6673" stroke="white" stroke-width="2" stroke-linecap="round" stroke-linejoin="round"></path>
<path d="M28.334 28.833H36.6673" stroke="white" stroke-width="2" stroke-linecap="round" stroke-linejoin="round"></path>
<path d="M28.334 12.167H36.6673" stroke="white" stroke-width="2" stroke-linecap="round" stroke-linejoin="round"></path>
</svg></svg></g></svg>